<svg width="661" height="609" viewBox="0 0 661 609" fill="none" xmlns="http://www.w3.org/2000/svg">
<g opacity="0.7">
<path opacity="0.1" d="M368.521 80.8786C501.283 139.308 626.743 302.293 580.132 408.194C533.521 514.096 340.279 559.9 207.517 501.471C74.7547 443.042 67.8571 212.019 114.468 106.118C161.079 0.21605 235.758 22.4494 368.521 80.8786Z" fill="#F4A261"/>
<path opacity="0.2" d="M325.351 443.489C199.718 433.901 49.8945 336.277 57.5222 235.758C65.15 135.239 210.256 41.6637 335.889 51.2517C461.522 60.8397 533.841 248.693 526.213 349.213C518.586 449.732 450.985 453.077 325.351 443.489Z" fill="#2A9D8F"/>
<path opacity="0.4" d="M328.012 474.427C192.355 464.084 30.5775 358.774 38.8138 250.34C47.0502 141.905 203.733 40.9621 339.391 51.3051C475.048 61.6481 553.137 264.293 544.901 372.728C536.664 481.162 463.67 484.77 328.012 474.427Z" fill="#325B6C"/>
<path d="M406.874 169.12H280.019C247.483 171.283 247.627 207.093 247.627 207.093V378.209H374.639V207.093C374.639 207.093 375.24 171.164 406.874 169.12Z" fill="#E8913A"/>
<path d="M240.24 209.256H238.775V340.957H240.24V209.256Z" fill="#FFC155"/>
<path d="M385.216 149.043H307.735V106.163H385.216V149.043ZM309.2 147.579H383.75V107.627H309.2V147.579Z" fill="#FFC155"/>
<path d="M240.24 193.774H162.759V139.829H240.24V193.774ZM164.225 192.31H238.775V141.293H164.225V192.31Z" fill="#FFC155"/>
<path d="M459.786 279.764H382.305V236.722H459.786V279.764ZM383.771 278.3H458.321V238.186H383.771V278.3Z" fill="#FFC155"/>
<path d="M401.802 166.798C370.17 168.84 369.564 204.77 369.564 204.77V375.885H242.561V204.78C242.561 204.78 242.416 168.97 274.955 166.807L401.802 166.798Z" fill="url(#paint0_linear_439_5071)"/>
<path d="M346.473 211.499H259.233V219.189H346.473V211.499Z" fill="#FFDC94"/>
<path d="M333.725 229.283H259.233V234.731H333.725V229.283Z" fill="#FFDC94"/>
<path d="M296.68 243.663H259.233V251.754H296.68V243.663Z" fill="#FFDC94"/>
<path d="M346.475 243.663H307.746V251.754H346.475V243.663Z" fill="#FFDC94"/>
<path d="M318.89 259.246H259.233V265.014H318.89V259.246Z" fill="#FFDC94"/>
<path d="M326.447 273.664H259.233V276.869H326.447V273.664Z" fill="#FFDC94"/>
<path d="M340.059 288.085H259.233V291.289H340.059V288.085Z" fill="#FFDC94"/>
<path d="M296.963 320.41H258.958V302.238H296.963V320.41ZM259.515 319.861H296.413V302.787H259.508L259.515 319.861Z" fill="#FFDC94"/>
<path d="M340.059 302.505H306.061V306.67H340.059V302.505Z" fill="#FFDC94"/>
<path d="M330.158 311.317H306.061V315.482H330.158V311.317Z" fill="#FFDC94"/>
<path d="M331.92 331.344H259.233V334.549H331.92V331.344Z" fill="#FFDC94"/>
<path d="M297.521 345.765H259.233V348.969H297.521V345.765Z" fill="#FFDC94"/>
<path d="M402.285 263.257L398.539 257.13C398.392 256.889 398.347 256.599 398.413 256.325C398.479 256.05 398.652 255.813 398.894 255.666C399.135 255.518 399.425 255.473 399.7 255.539C399.975 255.606 400.213 255.778 400.36 256.02L403.009 260.353L410.052 256.188C410.293 256.069 410.57 256.045 410.828 256.122C411.086 256.198 411.306 256.369 411.443 256.6C411.581 256.832 411.625 257.106 411.569 257.369C411.512 257.632 411.358 257.864 411.138 258.018L402.285 263.257Z" fill="#FFCA55"/>
<path d="M404.797 272.704C402.132 272.704 399.527 271.915 397.311 270.436C395.095 268.957 393.368 266.855 392.349 264.396C391.329 261.936 391.062 259.23 391.581 256.619C392.101 254.008 393.384 251.609 395.269 249.727C397.153 247.844 399.553 246.562 402.167 246.043C404.781 245.524 407.489 245.79 409.951 246.809C412.413 247.828 414.517 249.554 415.997 251.767C417.477 253.981 418.267 256.584 418.267 259.246C418.263 262.814 416.843 266.235 414.317 268.758C411.792 271.281 408.368 272.7 404.797 272.704ZM404.797 247.71C402.514 247.71 400.283 248.386 398.386 249.653C396.488 250.919 395.009 252.72 394.135 254.827C393.262 256.933 393.033 259.251 393.479 261.488C393.924 263.724 395.023 265.778 396.637 267.391C398.251 269.003 400.307 270.101 402.545 270.546C404.784 270.991 407.104 270.763 409.213 269.89C411.321 269.017 413.124 267.54 414.392 265.644C415.66 263.748 416.336 261.519 416.336 259.239C416.331 256.183 415.114 253.253 412.951 251.092C410.788 248.931 407.856 247.715 404.797 247.71Z" fill="#FFCA55"/>
<path d="M340.22 123.116L340.484 128.772L342.731 128.668L342.29 119.18L332.589 119.63L332.693 121.875L338.557 121.602L328.222 132.936L317.468 123.147L315.952 124.809L328.369 136.111L340.22 123.116Z" fill="#FFCA55"/>
<path d="M190.757 159.643C190.468 159.34 190.143 159.074 189.788 158.852C189.315 158.545 188.82 158.274 188.306 158.041C187.708 157.771 187.089 157.548 186.456 157.375C185.779 157.19 185.086 157.071 184.386 157.022L184.362 164.602L185.058 164.752C186.268 165.04 187.46 165.399 188.628 165.826C189.593 166.167 190.5 166.652 191.319 167.263C192.039 167.813 192.621 168.524 193.017 169.338C193.417 170.158 193.615 171.153 193.613 172.325C193.613 173.618 193.376 174.722 192.904 175.637C192.448 176.538 191.787 177.32 190.973 177.919C190.111 178.547 189.139 179.01 188.108 179.284C186.966 179.593 185.789 179.756 184.606 179.767L184.593 183.61H182.686L182.699 179.69C180.985 179.572 179.296 179.215 177.68 178.631C176.108 178.058 174.637 177.24 173.323 176.206L175.204 172.696C175.555 173.059 175.947 173.381 176.373 173.653C176.944 174.03 177.543 174.362 178.166 174.647C178.895 174.985 179.648 175.269 180.419 175.498C181.25 175.748 182.102 175.922 182.965 176.018L182.989 168.436C182.842 168.388 182.69 168.344 182.531 168.308C182.371 168.271 182.219 168.227 182.073 168.178C180.924 167.877 179.793 167.511 178.686 167.08C177.817 166.754 177.008 166.288 176.29 165.7C175.674 165.185 175.181 164.538 174.847 163.808C174.502 162.983 174.338 162.094 174.365 161.2C174.348 160.106 174.564 159.02 174.999 158.016C175.409 157.1 176.012 156.284 176.766 155.622C177.55 154.942 178.453 154.413 179.43 154.063C180.51 153.674 181.64 153.437 182.785 153.358L182.798 149.66H184.703L184.692 153.36C186.2 153.445 187.684 153.771 189.088 154.327C190.35 154.824 191.543 155.48 192.638 156.279L190.757 159.643ZM178.657 160.558C178.657 161.582 179.014 162.353 179.73 162.869C180.446 163.385 181.538 163.84 183.007 164.234L183.031 157.018C181.54 157.088 180.441 157.433 179.734 158.052C179.027 158.672 178.668 159.507 178.657 160.556V160.558ZM189.211 172.751C189.211 171.676 188.784 170.863 187.929 170.312C187.074 169.76 185.878 169.262 184.34 168.816L184.317 176.069C185.881 176.048 187.086 175.759 187.931 175.201C188.776 174.644 189.202 173.826 189.211 172.749V172.751Z" fill="#FFCA55"/>
<path d="M232.813 155.185H202.383V159.511H232.813V155.185Z" fill="#DED4CE"/>
<path d="M226.301 164.635H202.383V168.961H226.301V164.635Z" fill="#DED4CE"/>
<path d="M229.219 174.085H202.383V178.411H229.219V174.085Z" fill="#DED4CE"/>
<path d="M445.596 251.355H423.854V255.681H445.596V251.355Z" fill="#DED4CE"/>
<path d="M448.25 260.807H423.854V265.133H448.25V260.807Z" fill="#DED4CE"/>
<path d="M376.946 115.988H349.281V120.314H376.946V115.988Z" fill="#DED4CE"/>
<path d="M371.024 125.44H349.281V129.766H371.024V125.44Z" fill="#DED4CE"/>
<path d="M373.678 134.89H349.281V139.216H373.678V134.89Z" fill="#DED4CE"/>
<path d="M402.534 308.363H379.03V306.899H401.069V280.715H402.534V308.363Z" fill="#DED4CE"/>
<path d="M289.795 164.232H288.33V156.614H339.328V151.256H340.793V158.078H289.795V164.232Z" fill="#DED4CE"/>
<path d="M232.813 254.091H206.061V196.438H207.526V252.627H232.813V254.091Z" fill="#DED4CE"/>
<path d="M379.045 230.685H377.579V213.262C377.559 212.973 375.7 179.551 403.927 174.689L404.176 176.131C377.233 180.781 379.023 212.89 379.043 213.214L379.045 230.685Z" fill="#FFC155"/>
<path d="M463.515 264.17H462.05V234.621H430.308V233.157H463.515V264.17Z" fill="#FFC155"/>
<path d="M188.769 198.164H158.631V169.794H160.096V196.7H188.769V198.164Z" fill="#FFC155"/>
<path d="M305.7 125.44H304.234V103.099H341.636V104.563H305.7V125.44Z" fill="#FFC155"/>
<path d="M379.763 383.245H352.328V381.781H378.297V340.216H379.763V383.245Z" fill="#FFC155"/>
<path d="M358.76 354.21H334.879V330.343H358.768L358.76 354.21ZM337.069 352.014H356.562V332.539H337.077L337.069 352.014Z" fill="#FFDC94"/>
<path d="M347.193 347.23L338.804 339.329L341.315 336.666L347.36 342.357L360.546 331.533L362.872 334.36L347.193 347.23Z" fill="#FFDC94"/>
<g style="mix-blend-mode:hard-light" opacity="0.24">
<path d="M339.561 285.512C321.639 254.676 282.087 244.194 251.219 262.102C248.175 263.869 245.279 265.88 242.561 268.116V282.926C246.531 278.275 251.264 274.333 256.557 271.269C282.353 256.301 315.41 265.063 330.391 290.837C334.839 298.464 337.338 307.069 337.667 315.89C337.69 316.558 337.705 317.22 337.705 317.888C337.705 336.49 328.068 354.593 310.807 364.604C287.857 377.914 259.153 372.453 242.561 352.938V367.761C246.434 370.954 250.669 373.68 255.18 375.883H312.186C313.519 375.229 314.833 374.523 316.137 373.769C346.994 355.866 357.487 316.351 339.561 285.512Z" fill="#3F444F"/>
</g>
<path d="M141.581 438.179L221.811 371.372L210.443 357.745L130.212 424.552L141.581 438.179Z" fill="#FF7E55"/>
<path d="M220.445 369.734L224.731 366.165L216.102 355.821L211.816 359.39L220.445 369.734Z" fill="#E66947"/>
<path d="M211.067 350.362C228.99 381.197 268.542 391.679 299.408 373.771C330.274 355.863 340.764 316.349 322.839 285.512C304.914 254.675 265.364 244.194 234.501 262.103C203.639 280.011 193.142 319.524 211.067 350.362ZM220.244 345.036C216.681 338.908 214.362 332.139 213.419 325.115C212.475 318.092 212.925 310.951 214.744 304.101C216.563 297.251 219.714 290.827 224.018 285.193C228.322 279.56 233.694 274.829 239.828 271.271C265.624 256.303 298.681 265.063 313.662 290.837C318.11 298.464 320.609 307.067 320.938 315.888C321.656 335.184 311.962 354.23 294.078 364.603C268.282 379.57 235.234 370.81 220.244 345.036Z" fill="#494F5C"/>
<path opacity="0.3" d="M215.452 301.656C215.452 301.656 271.705 258.982 320.934 315.888C320.605 307.067 318.107 298.464 313.658 290.837C298.677 265.063 265.62 256.303 239.824 271.271C228.186 278.001 219.491 288.841 215.452 301.656Z" fill="#C2C2C2"/>
<path d="M362.843 343.389C362.148 343.649 361.427 343.833 360.693 343.938C359.757 344.03 358.401 345.007 358.057 345.432C357.713 345.856 354.881 348.89 354.831 349.275C354.782 349.659 355.564 349.533 355.815 349.225C356.066 348.918 358.542 346.48 358.542 346.48C358.542 346.48 355.775 349.56 355.795 349.921C355.815 350.281 356.229 350.591 356.742 350.272C356.742 350.272 357.148 351.107 357.87 350.384L359.31 348.945C359.31 348.945 358.702 349.822 359.493 349.571C359.92 349.436 361.347 347.622 361.746 347.355C362.145 347.088 363.671 344.764 363.671 344.764L362.843 343.389Z" fill="#EEA886"/>
<path d="M372.685 403.055C372.685 403.055 371.632 405.157 370.993 405.573C370.353 405.988 366.78 409.463 366.047 409.782C365.314 410.1 362.951 410.547 362.983 411.663C363.014 412.779 369.078 412.428 370.26 412.013C371.441 411.597 373.42 408.92 374.216 408.953C375.013 408.986 374.727 412.247 374.727 412.247H375.588C375.588 412.247 376.674 408.803 376.641 407.591C376.608 406.38 375.94 403.064 375.94 403.064L372.685 403.055Z" fill="#162D40"/>
<path d="M387.465 401.746C387.465 401.746 387.003 403.831 386.241 404.557C385.479 405.284 382.626 408.36 381.9 408.691C381.175 409.022 379.786 409.253 379.356 409.789C378.926 410.325 379.173 411.872 381.9 411.707C384.628 411.542 385.505 411.566 386.15 411.021C386.795 410.475 388.881 408.588 389.502 408.539V411.544H390.245C390.245 411.544 391.562 407.6 391.09 405.939C390.617 404.277 390.643 402.021 390.643 402.021L387.465 401.746Z" fill="#162D40"/>
<path d="M386.386 312.514C386.386 312.514 387.626 315.701 386.661 318.166C386.661 318.166 391.207 317.879 391.379 317.363C391.551 316.847 391.196 312.069 391.821 310.658C392.445 309.247 386.386 312.514 386.386 312.514Z" fill="#EEA886"/>
<path d="M394.618 355.277C394.472 355.664 394.396 356.073 394.394 356.487C394.425 356.893 394.198 357.559 394.112 357.918C394.026 358.276 393.825 359.865 393.874 360.256C393.894 360.416 394.413 361.34 394.424 361.669C394.435 361.999 394.359 362.67 394.647 362.652C394.935 362.634 395.165 362.044 395.165 362.044C395.171 362.126 395.2 362.205 395.25 362.27C395.3 362.335 395.368 362.384 395.446 362.41C395.946 362.527 396.158 362.282 396.158 362.282C396.158 362.282 396.384 362.57 396.605 362.568C396.731 362.576 396.856 362.558 396.975 362.515C397.093 362.472 397.201 362.405 397.292 362.319C397.468 362.404 397.667 362.424 397.856 362.377C397.98 362.345 398.093 362.282 398.186 362.194C398.278 362.106 398.347 361.996 398.386 361.874C398.386 361.874 398.935 361.874 399.043 361.585C399.151 361.296 399.08 361.036 399.105 360.796C399.131 360.557 398.728 358.507 397.79 357.173C396.852 355.839 397.323 354.162 397.323 354.162L394.618 355.277Z" fill="#EEA886"/>
<path d="M393.189 366.475L392.627 362.591C392.584 362.291 392.662 361.986 392.843 361.743C393.025 361.5 393.295 361.338 393.596 361.294L399.759 360.401C400.06 360.358 400.366 360.436 400.609 360.618C400.853 360.8 401.014 361.07 401.058 361.371L401.622 365.252C401.665 365.553 401.587 365.859 401.405 366.102C401.223 366.346 400.952 366.507 400.651 366.552L394.489 367.443C394.189 367.486 393.883 367.409 393.639 367.227C393.395 367.046 393.233 366.775 393.189 366.475ZM393.707 362.055C393.658 362.062 393.611 362.079 393.568 362.104C393.526 362.129 393.488 362.163 393.459 362.202C393.429 362.242 393.407 362.287 393.395 362.335C393.383 362.383 393.38 362.433 393.387 362.482L393.951 366.363C393.965 366.462 394.019 366.552 394.099 366.612C394.179 366.672 394.28 366.698 394.38 366.683L400.541 365.79C400.64 365.775 400.729 365.722 400.789 365.642C400.849 365.562 400.874 365.461 400.86 365.362L400.296 361.481C400.281 361.382 400.228 361.293 400.148 361.233C400.068 361.174 399.968 361.148 399.869 361.162L393.707 362.055Z" fill="#0E1E2B"/>
<path d="M388.507 383.197L411.255 379.902L408.853 363.354L386.105 366.649L388.507 383.197Z" fill="#EDDAD3"/>
<path d="M395.052 361.869C395.052 361.869 394.686 360.039 395.098 359.535C395.51 359.032 395.675 359.695 395.675 359.695C395.675 359.695 395.491 359.05 396.003 358.849C396.514 358.648 396.664 359.426 396.664 359.426C396.664 359.352 396.678 359.28 396.707 359.212C396.735 359.145 396.777 359.083 396.83 359.032C396.882 358.981 396.945 358.941 397.013 358.914C397.081 358.887 397.155 358.875 397.228 358.877C397.792 358.864 397.777 359.539 397.777 359.539C397.777 359.539 398.191 358.791 398.635 359.329C399.384 360.244 399.041 361.572 399.041 361.572C399.041 361.572 398.928 361.885 398.384 361.861C398.384 361.861 398.158 362.652 397.285 362.306C397.285 362.306 396.565 362.925 396.151 362.27C396.151 362.279 395.345 362.895 395.052 361.869Z" fill="#DB9C7C"/>
<path d="M385.947 317.089C385.947 317.089 383.261 318.016 382.049 318.274C380.836 318.532 378.296 319.702 378.501 324.107C378.706 328.511 379.466 332.327 379.741 334.219C380.016 336.111 379.845 340.928 379.396 343.267C379.396 343.267 385.835 344.85 393.411 343.267C393.411 343.267 392.068 339.275 392.103 338.245C392.138 337.215 396.578 328.714 396.785 327.373C396.992 326.032 397.884 320.115 395.854 318.809C393.825 317.502 392.171 317.672 391.31 317.089C390.449 316.505 387.203 316.669 385.947 317.089Z" fill="#EB4747"/>
<path d="M382.503 318.166C382.503 318.166 379.537 318.086 377.438 322.73C375.339 327.375 374.821 330.091 374.339 330.746C373.857 331.401 372.17 333.945 370.516 335.182C368.862 336.419 361.982 343.397 361.982 343.397L363.871 345.812C363.871 345.812 373.788 338.794 374.821 337.59C375.854 336.386 382.127 327.271 382.503 325.894C382.878 324.518 385.772 319.59 382.503 318.166Z" fill="#EB4747"/>
<path d="M400.28 341.237C400.298 343.095 398.367 355.771 398.367 355.771L394.719 355.925C394.719 355.925 395.889 343.353 396.303 340.463C396.424 339.61 396.321 338.285 396.12 336.842C395.99 335.927 395.818 334.958 395.634 334.036C395.131 331.489 394.55 329.265 394.55 329.265C394.55 329.265 391.253 318.443 396.314 319.237C397.502 320.804 398.296 322.633 398.631 324.57C399.199 327.821 399.767 332.671 399.664 334.58C399.562 336.488 400.27 339.87 400.28 341.237Z" fill="#EB4747"/>
<path d="M379.389 343.267C379.389 343.267 378.218 346.032 378.107 346.731C377.995 347.43 374.333 356.558 374.077 359.228C373.819 361.929 373.044 369.136 372.769 370.168C372.494 371.2 373.388 375.81 373.526 376.842C373.663 377.874 373.595 394.728 372.355 403.055C372.355 403.055 375.247 404.292 377.451 403.055C377.451 403.055 381.102 390.051 380.895 382.559C380.688 375.067 379.737 371.895 380.895 368.868C382.052 365.842 388.877 356.759 389.566 355.795C390.255 354.831 394.57 349.509 390.482 343.743C386.393 337.976 379.389 343.267 379.389 343.267Z" fill="#1D3B54"/>
<path d="M393.493 367.897C393.127 370.305 393.511 373.469 394.27 382.277C395.028 391.084 392.943 401.746 392.943 401.746C390.328 402.641 387.315 401.746 387.315 401.746C387.382 401.128 387.315 380.28 387.315 378.423C387.315 376.565 386.78 374.457 386.642 372.325C386.549 370.872 385.871 368.193 385.111 365.457C384.882 364.639 384.648 363.81 384.417 363.018L384.04 361.706C382.968 357.991 381.525 343.645 381.525 343.645C381.525 343.645 389.518 337.215 393.409 343.268C397.299 349.322 395.303 353.725 395.165 354.483C395.028 355.24 393.859 365.488 393.493 367.897Z" fill="#1D3B54"/>
<path d="M378.772 332.003C378.772 332.003 379.31 342.837 376.727 349.081C376.727 349.081 385.25 351.919 396.252 349.081C396.252 349.081 393.892 341.314 394.081 340.128C394.27 338.942 398.387 325.25 397.122 322.029C395.856 318.809 380.043 321.841 378.772 332.003Z" fill="#EB4747"/>
<path d="M388.934 299.958C387.016 299.74 382.048 300.128 382.426 307.594C382.803 315.061 385.525 314.611 388.245 313.816C390.965 313.022 394.202 307.247 394.202 305.699C394.202 304.15 394.409 300.576 388.934 299.958Z" fill="#EEA886"/>
<path d="M382.703 304.176C382.703 304.176 384.864 306.921 387.036 307.589C387.036 307.589 388.71 310.577 391.628 311.339C391.628 311.339 397.856 305.393 392.617 300.92C387.379 296.448 382.668 301.894 382.703 304.176Z" fill="#FCCCA2"/>
<path d="M386.628 306.562C386.699 306.154 387.606 305.323 388.304 306.251C389.002 307.179 387.729 309.348 387.247 309.348C386.765 309.348 386.35 308.11 386.628 306.562Z" fill="#EEA886"/>
<path d="M393.493 302.266C393.649 302.029 398.367 299.905 399.355 304.343C400.342 308.78 395.556 313.941 394.718 316.159C393.881 318.377 394.718 323.642 394.718 323.642C394.718 323.642 392.22 320.935 391.35 318.166C390.388 315.127 390.068 307.463 393.493 302.266Z" fill="#FCCCA2"/>
<path d="M390.181 354.959C390.119 355.096 386.137 363.926 385.113 365.457C384.884 364.639 384.65 363.81 384.419 363.018C384.419 363.018 390.048 355.153 390.181 354.959Z" fill="#162D40"/>
<path d="M396.948 327.825C396.948 327.825 396.823 333.441 396.116 336.842C395.986 335.927 395.814 334.958 395.631 334.036C395.66 333.908 396.81 328.704 396.948 327.825Z" fill="#AB3434"/>
<path d="M255.647 356.554C255.92 356.817 256.143 357.127 256.306 357.469C256.44 357.815 256.889 358.273 257.099 358.533C257.31 358.792 258.103 360.017 258.215 360.363C258.261 360.502 258.2 361.461 258.325 361.735C258.449 362.01 258.773 362.531 258.53 362.63C258.286 362.729 257.865 362.335 257.865 362.335C257.893 362.404 257.9 362.48 257.884 362.552C257.869 362.625 257.831 362.691 257.777 362.742C257.692 362.825 257.583 362.879 257.465 362.894C257.347 362.91 257.227 362.887 257.123 362.829C257.123 362.829 257.07 363.241 256.889 363.325C256.788 363.383 256.673 363.412 256.557 363.409C256.441 363.405 256.328 363.369 256.231 363.305C256.186 363.393 256.123 363.471 256.047 363.533C255.971 363.596 255.882 363.643 255.788 363.671C255.67 363.689 255.55 363.674 255.44 363.627C255.33 363.581 255.236 363.505 255.167 363.408C255.167 363.408 254.72 363.602 254.517 363.408C254.366 363.245 254.243 363.06 254.15 362.859C254.035 362.676 253.559 360.833 253.804 359.369C254.049 357.905 252.905 356.807 252.905 356.807L255.647 356.554Z" fill="#EEA886"/>
<path d="M259.689 367.807H253.368C253.059 367.807 252.763 367.685 252.545 367.467C252.327 367.249 252.204 366.953 252.203 366.645V362.659C252.204 362.351 252.327 362.055 252.545 361.837C252.763 361.62 253.059 361.497 253.368 361.497H259.691C260 361.497 260.296 361.62 260.514 361.837C260.733 362.055 260.856 362.351 260.856 362.659V366.645C260.856 366.798 260.825 366.949 260.767 367.09C260.708 367.231 260.622 367.359 260.514 367.467C260.405 367.575 260.277 367.661 260.135 367.719C259.994 367.777 259.842 367.807 259.689 367.807ZM253.368 362.275C253.267 362.275 253.17 362.316 253.098 362.387C253.026 362.459 252.986 362.556 252.985 362.657V366.643C252.986 366.744 253.026 366.841 253.098 366.913C253.17 366.985 253.267 367.025 253.368 367.026H259.691C259.793 367.026 259.89 366.985 259.962 366.914C260.034 366.842 260.075 366.745 260.076 366.643V362.657C260.075 362.556 260.034 362.459 259.962 362.387C259.89 362.315 259.793 362.275 259.691 362.275H253.368Z" fill="#0E1E2B"/>
<path d="M268.39 366.096H244.664V383.08H268.39V366.096Z" fill="#FFCC63"/>
<path d="M246.45 320.65C246.45 320.65 245.235 320.668 244.717 324.297C244.199 327.926 245.18 329.447 245.298 330.956C245.415 332.466 247.188 342.225 247.237 342.657C247.287 343.089 247.523 348.281 248.214 349.659C248.904 351.037 253.991 358.847 254.059 359.237C254.126 359.627 256.528 357.877 256.528 357.877C256.528 357.877 252.533 349.523 252.302 348.57C252.071 347.617 250.47 342.749 250.716 341.263C250.961 339.777 250.003 331.58 250.097 330.669C250.19 329.758 248.789 321.204 246.45 320.65Z" fill="#EEA886"/>
<path d="M246.45 320.65C246.45 320.65 245.235 320.668 244.717 324.297C244.199 327.926 244.666 329.238 244.981 330.81C245.276 332.296 246.285 341.387 246.332 341.819C246.38 342.251 247.587 347.73 248.214 349.659C248.692 351.123 253.225 358.809 253.293 359.191C253.361 359.574 256.819 357.398 256.819 357.398C256.819 357.398 252.384 348.757 252.154 347.803C251.923 346.85 251.172 343.55 251.148 342.042C251.119 340.273 250.003 331.58 250.097 330.669C250.19 329.758 249.842 321.892 246.45 320.65Z" fill="#285173"/>
<path d="M236.282 405.322C236.282 405.322 238.399 408.462 239.253 409.218C239.253 409.218 241.215 409.906 241.338 411.231C241.416 412.104 241.338 413.504 239.097 413.568C236.857 413.632 235.416 412.849 235.005 411.491C234.595 410.133 233.818 409.527 233.818 409.527V412.367H233.313C233.313 412.367 233.186 409.622 233.155 409.117C233.124 408.612 232.789 406.671 233.859 405.811C234.928 404.951 236.282 405.322 236.282 405.322Z" fill="#EDDAD3"/>
<path d="M250.639 402.815C250.923 403.442 251.278 404.036 251.698 404.583C252.205 405.243 253.782 407.959 254.478 408.147C255.174 408.336 257.321 408.715 257.51 409.915C257.698 411.116 257.793 411.967 255.678 412.062C253.562 412.157 252.172 412.281 251.161 410.799C250.15 409.317 248.54 408.237 248.54 408.237V412.108H247.717C247.717 412.108 247.338 408.082 247.118 407.794C246.898 407.507 246.327 404.418 248.287 402.809C250.247 401.201 250.639 402.815 250.639 402.815Z" fill="#EDDAD3"/>
<path d="M234.868 344.716C234.868 344.716 232.195 348.193 231.472 352.305C230.748 356.417 231.899 370.239 231.868 372.281C231.836 374.324 229.941 379.382 230.32 383.217C230.699 387.053 233.866 405.82 233.866 405.82L236.289 405.324C236.289 405.324 236.053 385.867 236.289 384.259C236.526 382.65 237.002 376.781 237.097 376.119C237.192 375.456 243.111 358.055 243.111 355.085C243.111 352.115 241.305 339.87 234.868 344.716Z" fill="#EEA886"/>
<path d="M248.287 346.072C248.287 346.072 252.683 362.815 253.198 365.133C253.712 367.452 254.48 369.366 254.48 370.351C254.48 372.636 253.63 376.306 253.63 376.306L250.639 402.815H248.287C248.287 402.815 246.801 387.335 246.565 384.211C246.329 381.087 248.27 376.258 247.796 374.933C247.322 373.608 240.169 358.317 240.169 358.317C240.169 358.317 234.751 341.212 248.287 346.072Z" fill="#EEA886"/>
<path d="M239.616 409.381C239.616 409.381 237.773 410.329 236.099 409.079C234.425 407.829 233.859 405.82 233.859 405.82L236.282 405.324L239.616 409.381Z" fill="#EEA886"/>
<path d="M254.478 408.148C254.478 408.148 252.582 408.622 251.855 408.148C251.128 407.674 248.659 403.503 247.842 403.254C247.842 403.254 248.633 401.647 250.639 402.815C250.639 402.815 253.939 407.454 254.478 408.148Z" fill="#EEA886"/>
<path d="M253.905 367.807C253.905 367.807 245.845 372.55 230.717 372.55C230.717 372.55 229.862 355.03 232.06 350.1C234.258 345.17 248.851 348.226 248.851 348.226C248.851 348.226 253.386 364.178 253.905 367.807Z" fill="#1D3B54"/>
<path d="M242.883 319.341C242.883 319.341 245.228 320.439 246.043 320.611C246.858 320.783 250.016 324.873 250.569 326.37C251.122 327.867 250.569 330.111 249.43 332.746C248.291 335.381 249.364 336.262 248.844 338.897C248.323 341.532 247.867 347.112 247.964 348.576C248.062 350.04 234.793 350.316 231.763 347.648C231.763 347.648 234.807 343.093 235.198 342.443C235.588 341.794 235.263 338.245 234.904 337.334C234.545 336.423 232.157 328.676 232.157 328.676C232.157 328.676 230.206 322.727 231.974 321.356C233.505 320.169 237.676 319.744 238.425 319.484C239.174 319.224 241.354 319.114 242.883 319.341Z" fill="#EDDAD3"/>
<path d="M243.633 324.564L245.058 322.897L243.821 318.505C243.821 318.505 243.405 320.959 243.633 324.564Z" fill="#D6C5BE"/>
<path d="M239.925 302.716C241.317 302.225 246.439 301.023 247.644 307.563C248.849 314.104 245.233 318.756 241.911 317.52C238.588 316.285 236.538 311.761 236.342 308.312C236.146 304.862 238.165 303.334 239.925 302.716Z" fill="#EEA886"/>
<path d="M247.644 307.563C247.644 307.563 247.893 301.967 242.332 301.771C236.771 301.576 235.265 306.163 235.721 309.496C235.987 311.476 236.969 313.29 238.482 314.596C238.482 314.596 238.282 311.895 239.363 311.192C240.444 310.49 244.776 309.093 246.664 305.84C246.657 305.84 247.532 306.868 247.644 307.563Z" fill="#252E3B"/>
<path d="M240.7 306.97C239.967 309.199 237.791 310.486 235.84 309.845C233.89 309.205 232.91 306.879 233.642 304.65C234.375 302.421 236.551 301.135 238.502 301.775C240.453 302.416 241.433 304.742 240.7 306.97Z" fill="#252E3B"/>
<path d="M244.003 316.638C244.003 316.638 243.536 320.935 243.636 322.335C243.636 322.335 241.2 324.774 238.429 319.488C238.429 319.488 239.596 317.308 238.718 314.34C237.841 311.372 244.003 316.638 244.003 316.638Z" fill="#EEA886"/>
<path d="M243.632 322.335V324.564L240.828 322.471L243.632 322.335Z" fill="#EEA886"/>
<path d="M243.633 324.564L242.469 323.124L238.548 319.219L237.278 320.439L243.633 324.564Z" fill="#D6C5BE"/>
<path d="M238.002 319.592C238.002 319.592 241.299 324.582 241.451 326.778C241.603 328.974 240.227 345.404 239.123 350.686C238.018 355.967 230.03 350.089 230.03 350.089C230.03 350.089 235.397 341.409 233.327 334.461C231.258 327.512 230.519 324.732 230.519 324.732C230.519 324.732 231.228 320.862 233.739 320.318C235.952 319.841 238.002 319.592 238.002 319.592Z" fill="#285173"/>
<path d="M250.787 327.036C250.787 327.036 251.381 329.135 249.067 333.773C249.067 333.773 249.104 339.709 249.17 341.565C249.236 343.42 249.673 350.431 249.673 350.431L247.387 351.769C247.284 351.83 247.165 351.861 247.045 351.858C246.925 351.855 246.808 351.818 246.707 351.753C246.606 351.687 246.526 351.594 246.476 351.485C246.425 351.376 246.406 351.255 246.42 351.136C247.069 345.798 249.168 325.554 244.623 320.112L246.455 320.65C246.455 320.65 249.705 323.303 250.787 327.036Z" fill="#285173"/>
<path d="M239.914 310.01C239.864 309.894 239.789 309.791 239.694 309.708C239.599 309.625 239.487 309.564 239.366 309.529C239.245 309.494 239.117 309.486 238.992 309.506C238.868 309.526 238.749 309.573 238.645 309.644C238.255 309.937 238.026 310.815 238.645 311.954C239.264 313.092 241.446 313.888 239.914 310.01Z" fill="#EEA886"/>
<path d="M245.058 322.897L246.853 323.393L243.821 318.509L245.058 322.897Z" fill="#FAE6DE"/>
<path d="M242.47 323.124L240.828 325.272L237.462 319.665L238.548 319.219L242.47 323.124Z" fill="#FAE6DE"/>
<path d="M243.907 317.584L243.827 318.446C243.827 318.446 241.889 318.812 239.356 315.72C239.356 315.72 241.152 317.908 243.907 317.584Z" fill="#A77860"/>
<path d="M253.872 343.894C253.872 343.894 255.011 344.626 255.665 344.218C256.215 343.869 257.195 343.821 257.497 343.805C257.896 343.785 259.101 343.265 259.132 343.768C259.164 344.271 257.187 344.722 256.792 344.899C256.396 345.077 258.138 345.926 258.334 346.332C258.53 346.738 256.958 349.538 255.83 348.817C254.702 348.096 253.974 346.583 253.751 346.495C253.461 346.347 253.18 346.183 252.91 346.003L253.872 343.894Z" fill="#EEA886"/>
<path d="M232.241 321.1C232.241 321.1 233.822 320.708 235.19 322.172C236.559 323.636 237.242 326.045 237.601 326.826C237.96 327.607 242.486 334.829 242.746 334.991C243.006 335.154 247.606 338.864 249.69 340.847C251.775 342.831 255.837 345.045 255.837 345.045L254.308 347.194C254.308 347.194 241.964 340.621 240.401 338.214C238.839 335.808 232.597 329.135 232.597 329.135C232.597 329.135 228.871 323.521 232.241 321.1Z" fill="#EEA886"/>
<path d="M258.109 346.101C258.109 346.101 261.406 348.537 261.499 348.885C261.592 349.232 261.44 349.403 261.122 349.187C260.803 348.971 257.859 346.925 257.859 346.925C257.859 346.925 261.287 350.466 261.418 350.735C261.495 350.892 261.235 351.24 261.052 351.141C260.869 351.042 257.273 347.726 257.273 347.726C257.273 347.726 260.468 351.039 260.51 351.295C260.516 351.359 260.502 351.423 260.47 351.478C260.439 351.534 260.391 351.579 260.333 351.607C260.275 351.635 260.211 351.644 260.147 351.634C260.084 351.624 260.025 351.595 259.979 351.551C259.724 351.322 256.586 348.416 256.586 348.416C256.586 348.416 258.759 350.978 258.667 351.211C258.61 351.357 258.402 351.668 257.861 350.991C257.321 350.314 255.879 348.85 255.879 348.85L258.109 346.101Z" fill="#EEA886"/>
<path d="M249.611 332.609C249.611 332.609 249.721 340.02 249.269 343.589L249.067 333.767L249.611 332.609Z" fill="#1D3B54"/>
<path d="M233.056 320.556C233.056 320.556 233.958 320.708 235.324 322.172C236.69 323.636 237.377 326.045 237.735 326.826C238.092 327.607 242.62 334.829 242.88 334.991C243.14 335.154 246.909 337.736 248.994 339.726C251.078 341.715 254.958 344.081 254.958 344.081L252.967 347.035C252.967 347.035 242.083 341.01 240.363 338.71C238.52 336.26 231.937 329.066 231.937 329.066C231.937 329.066 227.675 322.522 233.056 320.556Z" fill="#285173"/>
<path d="M257.883 362.134C257.883 362.134 257.46 360.487 256.929 360.238C256.398 359.989 256.517 360.595 256.517 360.595C256.517 360.595 256.409 359.997 255.916 360.03C255.423 360.062 255.599 360.762 255.599 360.762C255.57 360.702 255.53 360.648 255.48 360.605C255.431 360.561 255.372 360.527 255.31 360.507C255.247 360.486 255.18 360.478 255.114 360.483C255.048 360.489 254.984 360.507 254.925 360.538C254.456 360.751 254.742 361.298 254.742 361.298C254.742 361.298 254.108 360.846 253.956 361.461C253.7 362.498 254.505 363.461 254.505 363.461C254.505 363.461 254.722 363.673 255.159 363.441C255.159 363.441 255.656 364.001 256.231 363.375C256.231 363.375 257.066 363.6 257.147 362.901C257.143 362.903 258.046 363.091 257.883 362.134Z" fill="#DB9C7C"/>
<path d="M240.482 340.452L236.756 334.446C236.756 334.446 239.932 338.194 240.264 338.597C240.596 338.999 240.63 339.028 240.63 339.028C240.63 339.028 240.526 340.247 240.482 340.452Z" fill="#1D3B54"/>
<path d="M279.345 354.933C279.53 355.731 279.767 356.517 280.054 357.285C280.274 357.865 280.382 361.664 280.36 362.154C280.342 362.568 280.067 362.324 279.928 362.052C279.847 361.896 279.598 360.588 279.356 359.885C279.151 359.298 278.975 359.078 278.871 359.268C278.766 359.459 278.58 361.9 278.805 362.943C279.03 363.986 278.794 366.391 278.244 366.043C277.695 365.695 276.413 361.347 276.517 359.711C276.621 358.075 277.211 356.022 277.211 356.022L279.345 354.933Z" fill="#EEA886"/>
<path d="M278.829 357.134C278.829 357.134 280.622 345.221 281.098 342.957C281.314 341.931 281.906 339.38 282.281 337.284C282.406 336.595 282.51 335.884 282.598 335.187C282.952 332.409 283.042 329.88 283.042 329.88C283.042 329.88 284.597 322.76 280.1 322.32C280.1 322.32 278.895 322.697 278.818 323.192C278.545 325.095 277.924 329.209 277.902 330.182C277.88 330.975 276.717 338.966 276.7 339.244C276.667 339.793 276.398 343.494 276.288 345.119C276.032 348.912 275.935 357.394 275.935 357.394L278.829 357.134Z" fill="#2C967D"/>
<path d="M277.394 407.913C277.394 407.913 275.66 409.851 273.898 410.256C272.136 410.66 270.903 411.171 270.888 412.29C270.874 413.41 275.96 414.133 277.977 413.022C280.986 411.35 281.292 411.855 281.626 411.009C281.959 410.164 281.225 407.941 281.247 407.673C281.274 407.346 277.394 407.913 277.394 407.913Z" fill="#202338"/>
<path d="M295.105 408.418C295.105 408.418 293.823 410.305 292.12 410.74C290.416 411.176 289.345 411.985 289.262 413.065C289.18 414.144 293.231 415.559 296.08 413.663C297.952 412.415 298.644 412.486 299.025 411.696C299.406 410.905 298.829 408.684 298.866 408.426C298.913 408.109 295.105 408.418 295.105 408.418Z" fill="#202338"/>
<path d="M277.591 406.987C277.508 407.292 277.442 407.601 277.395 407.913C277.429 407.933 281.366 408.402 281.241 407.673C281.146 407.084 281.007 406.442 281.007 406.442L277.591 406.987Z" fill="#81807E"/>
<path d="M295.157 407.487C295.122 407.796 295.105 408.107 295.105 408.418C295.136 408.44 298.888 409.15 298.866 408.418C298.835 407.984 298.755 407.554 298.628 407.137L295.157 407.487Z" fill="#81807E"/>
<path d="M281.17 352.689C281.17 352.689 279.737 366.581 278.994 371.337C278.124 376.897 277.827 381.492 277.585 384.369C277.279 387.988 277.219 405.794 277.006 406.854C276.794 407.913 281.748 407.147 281.748 407.147C281.748 407.147 284.188 383.88 285.097 380.026C285.945 376.436 289.088 360.981 289.859 361.962C290.63 362.943 291.59 379.997 292.162 382.824C292.733 385.651 294.475 407.818 294.475 407.818C294.475 407.818 298.419 408.603 299.468 407.716C299.468 407.716 299.946 388.616 299.582 383.307C299.443 381.294 301.963 359.054 298.734 350.105C297.034 345.379 281.17 352.689 281.17 352.689Z" fill="#292C47"/>
<path d="M305.709 354.662C305.709 354.662 303.297 355.394 302.286 355.211C301.274 355.028 301.785 342.632 301.736 340.051C301.705 337.96 300.56 332.437 300.56 332.437C300.56 332.44 300.56 332.444 300.56 332.448C300.446 332.861 298.901 338.593 298.847 341.347C298.791 344.204 299.214 355.136 299.214 355.136L295.367 356.944L282.08 357.327L280.146 357.356C280.146 357.356 280.45 350.874 280.563 348.654C280.635 347.243 280.91 344.716 280.838 342.249C280.838 342.249 280.882 339.654 280.626 338.538C280.598 333.597 280.298 328.724 280.298 328.724C280.133 326.487 280.018 324.395 279.952 322.447C280.501 322.161 281.14 321.828 281.661 321.581C283.267 320.816 285.507 319.786 286.945 319.127C287.786 318.741 288.61 318.459 288.61 318.459C288.61 318.459 294.354 317.91 294.821 317.938C295.436 318.105 296.039 318.311 296.627 318.556C298.664 319.329 302.591 320.901 303.221 321.349C304.137 322.006 306.079 337.592 306.165 338.684C306.332 340.668 305.709 354.662 305.709 354.662Z" fill="#D8D5E0"/>
<path d="M294.807 317.945C294.383 321.812 290.084 321.812 290.084 321.812C290.084 321.812 288.306 320.256 288.363 319.105C288.363 319.081 288.363 319.056 288.363 319.03C288.39 318.82 288.63 318.556 288.654 318.132C288.654 318.073 288.654 318.015 288.654 317.949C288.654 317.883 288.654 317.833 288.654 317.777C288.654 317.482 288.636 317.191 288.617 316.99C288.617 316.918 288.606 316.858 288.601 316.807C288.595 316.755 288.588 316.695 288.588 316.695C288.588 316.695 289.282 315.963 290.161 315.096C291.7 313.577 293.825 311.63 293.825 312.404C293.823 312.453 293.817 312.502 293.806 312.55C293.446 314.305 294.807 317.945 294.807 317.945Z" fill="#EEA886"/>
<path d="M294.398 349.888C294.398 349.888 294.746 352.084 294.777 352.651L295.51 352.504C295.51 352.504 295.307 350.184 295.188 349.796L294.398 349.888Z" fill="#5D676C"/>
<path d="M306.473 362.655C306.473 362.655 306.247 359.581 305.425 359.116C304.603 358.651 305.088 359.596 305.088 359.596C305.088 359.596 305.581 361.821 305.694 362.725C305.7 362.769 306.473 362.655 306.473 362.655Z" fill="#7F827F"/>
<path d="M298.344 364.826L309.187 361.576L309.356 374.975L298.617 381.627L298.344 364.826Z" fill="#7F827F"/>
<path d="M298.617 381.627L299.985 381.858L310.427 375.151L310.092 361.623L309.187 361.576L298.617 381.627Z" fill="#7F827F"/>
<path d="M291.874 320.227L290.084 321.817C290.084 321.817 292.151 321.68 292.537 321.336L291.874 320.227Z" fill="#B4B1BA"/>
<path d="M280.529 355.284C280.529 355.284 288.934 356 296.298 355.284V357.698C296.298 357.698 285.24 359.292 280.16 357.237L280.529 355.284Z" fill="#292C47"/>
<path d="M286.96 319.146L285.362 319.878C284.141 320.441 282.763 321.08 281.675 321.598C281.098 321.872 280.393 322.194 279.832 322.427C279.897 324.41 279.994 326.537 280.162 328.813C280.162 328.813 280.321 334.375 280.642 339.651C280.761 340.417 280.795 341.195 280.745 341.969C280.664 343 280.561 344.127 280.417 345.302C280.417 345.316 280.417 345.333 280.417 345.346C280.384 345.626 280.351 345.906 280.316 346.189V346.202C279.6 352.078 278.391 358.829 277.752 360.86C277.618 361.287 278.078 361.68 278.406 361.982L280.704 363.432C280.704 363.432 281.653 354.713 281.968 351.754C282.27 348.898 283.227 345.069 283.646 341.338C284.175 336.604 284.906 331.966 285.295 329.211C286.322 322.037 287.689 318.829 287.689 318.829L286.96 319.146Z" fill="#2C967D"/>
<path d="M301.569 340.174C301.752 342.568 300.734 355.811 301.752 355.998C302.771 356.185 306.48 355.367 306.48 355.367C306.48 355.367 306.947 341.093 306.797 339.588C306.689 338.49 304.952 322.154 304.035 321.499C303.505 321.118 299.582 319.729 297.657 318.972C297.305 318.833 296.964 318.701 296.649 318.58C296.241 319.034 291.909 327.04 291.572 333.546C291.469 335.526 291.938 339.707 292.286 343.122C292.663 346.767 293.081 349.611 293.385 352.658C293.988 358.662 294.409 363.441 294.409 363.441L300.391 360.78C301.358 360.297 302.699 358.311 302.335 357.303C300.952 353.432 299.221 346.822 299.21 343.426C299.21 343.426 299.877 335.112 300.404 333.286C300.399 333.269 301.342 337.125 301.569 340.174Z" fill="#2C967D"/>
<path d="M302.685 355.833C302.685 355.833 302.388 357.169 301.991 358.505C301.593 359.841 301.214 360.271 301.392 361.03C301.527 361.603 302.185 362.024 302.348 361.838C302.511 361.651 302.555 359.415 303.482 359.411C304.408 359.407 303.247 362.183 303.795 361.973C304.342 361.762 306.453 360.567 306.3 359.442C306.148 358.317 305.288 357.515 305.317 355.831C305.344 354.303 304.857 353.672 304.857 353.672L302.685 355.833Z" fill="#EEA886"/>
<path d="M303.388 359.318C303.388 359.318 302.159 359.652 302.289 363.823L303.685 363.57C303.685 363.57 303.624 361.263 304.022 360C304.027 360 303.945 359.184 303.388 359.318Z" fill="#7F827F"/>
<path d="M301.412 346.863L301.474 357.387C301.474 357.387 303.575 357.294 306.473 356.225L306.674 341.384L301.412 346.863Z" fill="#2C967D"/>
<path d="M288.13 320.501C288.13 320.501 287.976 322.698 289.835 322.749C291.694 322.8 293.171 321.016 293.171 321.016L290.084 321.812L288.205 320.221L288.13 320.501Z" fill="#D8D5E0"/>
<path d="M294.557 317.22C294.557 317.22 292.795 319.48 291.874 320.222L293.383 322.749L295.984 318.328L294.557 317.22Z" fill="#EAE6F2"/>
<path d="M288.493 320.635L290.084 321.812C290.084 321.812 288.687 319.264 288.659 318.132L288.493 320.635Z" fill="#B4B1BA"/>
<path d="M288.659 318.132L287.639 318.853L286.5 322.245L288.495 320.635L288.659 318.132Z" fill="#EAE6F2"/>
<path d="M280.428 335.672C280.428 335.672 280.88 339.588 280.642 343.162C280.404 346.736 279.426 352.448 279.426 352.448C279.426 352.448 279.417 339.911 280.428 335.672Z" fill="#1F3B6B"/>
<path d="M283.591 306.809C283.591 306.809 282.468 309.538 283.201 309.866C283.807 310.138 282.835 312.794 282.716 313.233C282.597 313.672 283.815 313.84 284.106 314.08C284.397 314.32 285.487 317.519 286.487 317.513C287.487 317.508 291.759 315.5 292.836 314.118C293.913 312.737 294.301 306.959 293.25 304.652C292.198 302.344 285.584 302.04 283.591 306.809Z" fill="#EEA886"/>
<path d="M283.379 307.397C283.379 307.397 281.662 304.758 284.029 302.417C286.395 300.077 291.539 303.208 292.088 303.29C292.638 303.373 295.874 304.063 294.799 308.978C293.841 313.355 293.75 313.471 293.75 313.471C293.75 313.471 292.468 311.156 291.863 310.81C290.923 310.261 289.026 310.627 289.026 310.627C289.026 310.627 289.683 308.112 288.223 307.918C286.764 307.724 284.763 306.711 283.379 307.397Z" fill="#323657"/>
<path d="M290.407 309.077C290.497 308.731 290.753 307.263 292.066 307.979C293.38 308.694 291.674 311.584 291.464 311.639C291.253 311.694 289.636 311.979 290.407 309.077Z" fill="#EEA886"/>
<path d="M292.669 314.314C292.64 314.389 291.663 316.759 288.667 317.956C288.667 317.897 288.667 317.841 288.667 317.784C288.667 317.489 288.649 317.198 288.63 316.997C288.63 316.926 288.619 316.865 288.614 316.814C288.616 316.818 291.834 315.306 292.669 314.314Z" fill="#A77860"/>
</g>
<defs>
<linearGradient id="paint0_linear_439_5071" x1="355.65" y1="349.974" x2="266.786" y2="140.826" gradientUnits="userSpaceOnUse">
<stop stop-color="#FF9F55"/>
<stop offset="1" stop-color="#FFD255"/>
</linearGradient>
</defs>
</svg>
