<svg width="80" height="80" viewBox="0 0 80 80" fill="none" xmlns="http://www.w3.org/2000/svg">
<path d="M65.5328 24.3852L80 40.8607C80 40.5738 80 40.2869 80 40C80 17.9098 62.0902 0 40 0C17.9098 0 0 17.9098 0 40C0 60.3279 15.1639 77.1312 34.8361 79.6721L15.2049 57.2951L65.5328 24.3852Z" fill="#2D3A4F"/>
<path d="M79.9999 40.8607L65.5327 24.3853L15.2048 57.2951L34.836 79.6721C36.5163 79.8771 38.2376 80 39.9999 80C61.8032 80 79.5081 62.541 79.9999 40.8607Z" fill="#253041"/>
<rect x="15.2048" y="24.3853" width="50.3279" height="32.9098" fill="#D7D7D7"/>
<path opacity="0.1" d="M15.2048 57.2951L40.3688 35.041L65.5327 57.2951H15.2048Z" fill="#636363"/>
<path d="M15.2048 24.3853L40.3688 50L65.5327 24.3853H15.2048Z" fill="#EFEFEE"/>
<path d="M65 54C68.866 54 72 50.866 72 47C72 43.134 68.866 40 65 40C61.134 40 58 43.134 58 47C58 50.866 61.134 54 65 54Z" fill="#28D047"/>
<path d="M63.0749 50.7915L61.2083 47.9332L62.6083 47.0582L63.3083 48.1665L67.5083 43.9082L68.6749 45.0165L63.0749 50.7915Z" fill="white"/>
</svg>
