<svg width="80" height="80" viewBox="0 0 80 80" fill="none" xmlns="http://www.w3.org/2000/svg">
<path fill-rule="evenodd" clip-rule="evenodd" d="M40 80C62.0914 80 80 62.0914 80 40C80 17.9086 62.0914 0 40 0C17.9086 0 0 17.9086 0 40C0 62.0914 17.9086 80 40 80Z" fill="#13B444"/>
<path fill-rule="evenodd" clip-rule="evenodd" d="M53.8675 35.322C55.5701 35.322 56.9492 36.7176 56.9492 38.4406L56.9337 38.5576L56.9492 38.5732V41.5593C56.9492 41.9569 56.8644 42.3389 56.7257 42.6976L52.0801 53.6908C51.6179 54.8057 50.5239 55.5932 49.245 55.5932H35.3775C33.6749 55.5932 32.2958 54.1976 32.2958 52.4745V36.8813C32.2958 36.0237 32.6425 35.244 33.1972 34.6749L43.3436 24.4067L44.9846 26.0518C45.4006 26.4728 45.6626 27.0576 45.6626 27.7047C45.6626 27.8762 45.6394 28.04 45.6086 28.1959L44.1371 35.322H53.8675ZM29.2142 55.5932H23.0508V36.8813H29.2142V55.5932Z" fill="white"/>
</svg>
